<svg width="16" height="14" viewBox="0 0 16 14" fill="none" xmlns="http://www.w3.org/2000/svg">
<path d="M14.9066 1.27186H11.6667V0.637127C11.667 0.553371 11.6504 0.47038 11.6179 0.392938C11.5854 0.315496 11.5376 0.245135 11.4773 0.18591C11.417 0.126685 11.3453 0.0797667 11.2664 0.04786C11.1876 0.0159534 11.103 -0.000310968 11.0177 4.50275e-06H4.53785C4.45253 -0.000310968 4.368 0.0159534 4.28912 0.04786C4.21024 0.0797667 4.13857 0.126685 4.07825 0.18591C4.01792 0.245135 3.97013 0.315496 3.93763 0.392938C3.90513 0.47038 3.88857 0.553371 3.88889 0.637127V1.27186H0.648958C0.476844 1.27186 0.311779 1.33899 0.190075 1.45847C0.0683722 1.57796 0 1.74001 0 1.90899C0 2.07796 0.0683722 2.24002 0.190075 2.3595C0.311779 2.47898 0.476844 2.54611 0.648958 2.54611H1.94444V12.091C1.94444 12.5973 2.1493 13.0829 2.51396 13.4409C2.87861 13.7989 3.37319 14 3.88889 14H11.6667C12.1824 14 12.6769 13.7989 13.0416 13.4409C13.4062 13.0829 13.6111 12.5973 13.6111 12.091V2.54611H14.9066C15.0787 2.54611 15.2438 2.47898 15.3655 2.3595C15.4872 2.24002 15.5556 2.07796 15.5556 1.90899C15.5556 1.74001 15.4872 1.57796 15.3655 1.45847C15.2438 1.33899 15.0787 1.27186 14.9066 1.27186ZM12.3156 12.091C12.315 12.2596 12.2463 12.421 12.1247 12.54C12.0031 12.659 11.8384 12.7258 11.6667 12.7258H3.88889C3.71719 12.7258 3.5525 12.659 3.43086 12.54C3.30923 12.421 3.24057 12.2596 3.23993 12.091V2.54611H12.3156V12.091Z" fill="black" fill-opacity="0.85"/>
<path d="M5.83304 10.8167C6.00473 10.8167 6.16943 10.7499 6.29107 10.6309C6.4127 10.512 6.48136 10.3505 6.482 10.182V5.08976C6.482 4.92078 6.41363 4.75873 6.29192 4.63925C6.17022 4.51976 6.00515 4.45264 5.83304 4.45264C5.66093 4.45264 5.49586 4.51976 5.37416 4.63925C5.25245 4.75873 5.18408 4.92078 5.18408 5.08976V10.182C5.18473 10.3505 5.25338 10.512 5.37501 10.6309C5.49665 10.7499 5.66135 10.8167 5.83304 10.8167Z" fill="black" fill-opacity="0.85"/>
<path d="M9.7222 10.8167C9.89389 10.8167 10.0586 10.7499 10.1802 10.6309C10.3019 10.512 10.3705 10.3505 10.3712 10.182V5.08976C10.3712 4.92078 10.3028 4.75873 10.1811 4.63925C10.0594 4.51976 9.89431 4.45264 9.7222 4.45264C9.55009 4.45264 9.38502 4.51976 9.26332 4.63925C9.14161 4.75873 9.07324 4.92078 9.07324 5.08976V10.182C9.07389 10.3505 9.14254 10.512 9.26417 10.6309C9.38581 10.7499 9.55051 10.8167 9.7222 10.8167Z" fill="black" fill-opacity="0.85"/>
</svg>
