<svg width="15" height="15" viewBox="0 0 15 15" fill="none" xmlns="http://www.w3.org/2000/svg">
<path d="M12.1161 0H2.63393C1.93537 0 1.26542 0.277502 0.77146 0.77146C0.277502 1.26542 0 1.93537 0 2.63393V12.1161C0 12.8146 0.277502 13.4846 0.77146 13.9785C1.26542 14.4725 1.93537 14.75 2.63393 14.75H12.1161C12.8146 14.75 13.4846 14.4725 13.9785 13.9785C14.4725 13.4846 14.75 12.8146 14.75 12.1161V2.63393C14.75 1.93537 14.4725 1.26542 13.9785 0.77146C13.4846 0.277502 12.8146 0 12.1161 0ZM2.63393 1.05357H12.1161C12.5352 1.05357 12.9372 1.22007 13.2336 1.51645C13.5299 1.81282 13.6964 2.21479 13.6964 2.63393V5.57866L12.7061 4.5883C12.4098 4.29235 12.0081 4.12612 11.5893 4.12612C11.1705 4.12612 10.7688 4.29235 10.4725 4.5883L6.28455 8.80259L4.7042 7.52777C4.42182 7.29668 4.06818 7.17042 3.7033 7.17042C3.33842 7.17042 2.98478 7.29668 2.70241 7.52777L1.05357 8.88161V2.63393C1.05357 2.21479 1.22007 1.81282 1.51645 1.51645C1.81282 1.22007 2.21479 1.05357 2.63393 1.05357ZM12.1161 13.6964H2.63393C2.21479 13.6964 1.81282 13.5299 1.51645 13.2336C1.22007 12.9372 1.05357 12.5352 1.05357 12.1161V10.2565L3.36089 8.32848C3.45515 8.251 3.57339 8.20864 3.6954 8.20864C3.81742 8.20864 3.93565 8.251 4.02991 8.32848L5.99482 9.90884C6.09575 9.98981 6.22295 10.0308 6.35217 10.024C6.48138 10.0172 6.60358 9.96309 6.69545 9.87196L11.2153 5.34688C11.2642 5.2975 11.3225 5.25831 11.3867 5.23157C11.4509 5.20482 11.5197 5.19105 11.5893 5.19105C11.6588 5.19105 11.7277 5.20482 11.7919 5.23157C11.8561 5.25831 11.9143 5.2975 11.9633 5.34688L13.6964 7.0642V12.1161C13.6964 12.5352 13.5299 12.9372 13.2336 13.2336C12.9372 13.5299 12.5352 13.6964 12.1161 13.6964Z" fill="black" fill-opacity="0.85"/>
<path d="M4.21415 5.79463C4.52671 5.79463 4.83226 5.70194 5.09215 5.52829C5.35203 5.35464 5.55459 5.10782 5.67421 4.81905C5.79382 4.53027 5.82512 4.21252 5.76414 3.90596C5.70316 3.5994 5.55264 3.3178 5.33163 3.09679C5.11061 2.87577 4.82902 2.72526 4.52246 2.66428C4.2159 2.6033 3.89814 2.6346 3.60937 2.75421C3.3206 2.87382 3.07378 3.07638 2.90013 3.33627C2.72648 3.59616 2.63379 3.9017 2.63379 4.21427C2.63379 4.63341 2.80029 5.03538 3.09667 5.33175C3.39304 5.62812 3.79501 5.79463 4.21415 5.79463ZM4.21415 3.68748C4.31833 3.68748 4.42018 3.71838 4.50681 3.77626C4.59344 3.83415 4.66096 3.91642 4.70083 4.01268C4.7407 4.10893 4.75114 4.21485 4.73081 4.31704C4.71048 4.41923 4.66031 4.51309 4.58664 4.58676C4.51297 4.66043 4.4191 4.71061 4.31692 4.73093C4.21473 4.75126 4.10881 4.74083 4.01255 4.70096C3.9163 4.66108 3.83402 4.59356 3.77614 4.50694C3.71826 4.42031 3.68736 4.31846 3.68736 4.21427C3.68736 4.07456 3.74286 3.94057 3.84165 3.84178C3.94044 3.74298 4.07443 3.68748 4.21415 3.68748Z" fill="black" fill-opacity="0.85"/>
</svg>
