<svg width="19" height="19" viewBox="0 0 19 19" fill="none" xmlns="http://www.w3.org/2000/svg">
<path d="M17.7262 14.2686C16.8767 15.724 15.7244 16.8764 14.2689 17.7259C12.8132 18.5754 11.224 19 9.5003 19C7.77674 19 6.18714 18.5754 4.73167 17.7259C3.27612 16.8765 2.12377 15.7242 1.27423 14.2686C0.424642 12.813 0 11.2234 0 9.49996C0 7.77643 0.424772 6.18709 1.2741 4.73137C2.1236 3.27595 3.27595 2.1236 4.7315 1.27401C6.18714 0.424599 7.77661 -8.58307e-05 9.50013 -8.58307e-05C11.2237 -8.58307e-05 12.8133 0.424599 14.2688 1.27401C15.7243 2.12329 16.8766 3.27595 17.7261 4.73137C18.5754 6.18696 19 7.77652 19 9.49996C19 11.2236 18.5754 12.8132 17.7262 14.2686ZM15.3264 6.12306C14.7244 5.09228 13.908 4.27592 12.8772 3.67364C11.8465 3.07167 10.7209 2.77098 9.50017 2.77098C8.2798 2.77098 7.15409 3.07167 6.12319 3.67364C5.09241 4.27592 4.27605 5.09228 3.67408 6.12306C3.07197 7.15383 2.77102 8.2795 2.77102 9.49996C2.77102 10.7205 3.0721 11.8462 3.67408 12.8769C4.27592 13.9077 5.09249 14.7243 6.12319 15.3262C7.15396 15.9282 8.27963 16.2291 9.50017 16.2291C10.7208 16.2291 11.8465 15.9282 12.8772 15.3262C13.908 14.7242 14.7244 13.9077 15.3264 12.8769C15.9284 11.8462 16.2292 10.7205 16.2292 9.49996C16.2292 8.2795 15.9284 7.15383 15.3264 6.12306Z" fill="black" fill-opacity="0.68"/>
<path d="M9.50018 12.6666C8.62598 12.6666 7.87973 12.3573 7.26116 11.739C6.6428 11.1204 6.3335 10.3741 6.3335 9.49994C6.3335 8.62584 6.64263 7.87945 7.26116 7.26114C7.87973 6.64257 8.62611 6.33326 9.50018 6.33326C10.3745 6.33326 11.1208 6.64257 11.7391 7.26114C12.3576 7.87945 12.6669 8.62584 12.6669 9.49994C12.6669 10.3741 12.3576 11.1204 11.7391 11.739C11.1208 12.3574 10.3745 12.6666 9.50018 12.6666Z" fill="black" fill-opacity="0.68"/>
</svg>
