<svg width="32" height="32" viewBox="0 0 32 32" fill="none" xmlns="http://www.w3.org/2000/svg">
<path d="M17.3333 18.6666H12C11.6464 18.6666 11.3072 18.8071 11.0572 19.0571C10.8071 19.3072 10.6667 19.6463 10.6667 20C10.6667 20.3536 10.8071 20.6927 11.0572 20.9428C11.3072 21.1928 11.6464 21.3333 12 21.3333H17.3333C17.687 21.3333 18.0261 21.1928 18.2761 20.9428C18.5262 20.6927 18.6667 20.3536 18.6667 20C18.6667 19.6463 18.5262 19.3072 18.2761 19.0571C18.0261 18.8071 17.687 18.6666 17.3333 18.6666ZM22.6667 5.33329H21.0933C20.8183 4.55523 20.3092 3.88129 19.6361 3.40388C18.9629 2.92646 18.1586 2.66895 17.3333 2.66663H14.6667C13.8414 2.66895 13.0371 2.92646 12.3639 3.40388C11.6908 3.88129 11.1818 4.55523 10.9067 5.33329H9.33334C8.27247 5.33329 7.25505 5.75472 6.50491 6.50487C5.75476 7.25501 5.33334 8.27243 5.33334 9.33329V25.3333C5.33334 26.3942 5.75476 27.4116 6.50491 28.1617C7.25505 28.9119 8.27247 29.3333 9.33334 29.3333H22.6667C23.7275 29.3333 24.745 28.9119 25.4951 28.1617C26.2452 27.4116 26.6667 26.3942 26.6667 25.3333V9.33329C26.6667 8.27243 26.2452 7.25501 25.4951 6.50487C24.745 5.75472 23.7275 5.33329 22.6667 5.33329ZM13.3333 6.66663C13.3333 6.313 13.4738 5.97387 13.7239 5.72382C13.9739 5.47377 14.313 5.33329 14.6667 5.33329H17.3333C17.687 5.33329 18.0261 5.47377 18.2761 5.72382C18.5262 5.97387 18.6667 6.313 18.6667 6.66663V7.99996H13.3333V6.66663ZM24 25.3333C24 25.6869 23.8595 26.0261 23.6095 26.2761C23.3594 26.5261 23.0203 26.6666 22.6667 26.6666H9.33334C8.97971 26.6666 8.64058 26.5261 8.39053 26.2761C8.14048 26.0261 8 25.6869 8 25.3333V9.33329C8 8.97967 8.14048 8.64053 8.39053 8.39048C8.64058 8.14044 8.97971 7.99996 9.33334 7.99996H10.6667V9.33329C10.6667 9.68691 10.8071 10.0261 11.0572 10.2761C11.3072 10.5261 11.6464 10.6666 12 10.6666H20C20.3536 10.6666 20.6928 10.5261 20.9428 10.2761C21.1929 10.0261 21.3333 9.68691 21.3333 9.33329V7.99996H22.6667C23.0203 7.99996 23.3594 8.14044 23.6095 8.39048C23.8595 8.64053 24 8.97967 24 9.33329V25.3333ZM20 13.3333H12C11.6464 13.3333 11.3072 13.4738 11.0572 13.7238C10.8071 13.9739 10.6667 14.313 10.6667 14.6666C10.6667 15.0202 10.8071 15.3594 11.0572 15.6094C11.3072 15.8595 11.6464 16 12 16H20C20.3536 16 20.6928 15.8595 20.9428 15.6094C21.1929 15.3594 21.3333 15.0202 21.3333 14.6666C21.3333 14.313 21.1929 13.9739 20.9428 13.7238C20.6928 13.4738 20.3536 13.3333 20 13.3333Z" fill="white"/>
</svg>
