<svg width="16" height="16" viewBox="0 0 16 16" fill="none" xmlns="http://www.w3.org/2000/svg">
<path d="M8.01689 16C5.89068 16 3.85155 15.1572 2.34809 13.6569C0.844634 12.1566 0 10.1218 0 8.00006C0 5.87834 0.844634 3.84352 2.34809 2.34324C3.85155 0.842962 5.89068 0.000113199 8.01689 0.000113199C9.2837 -0.00643795 10.5358 0.271441 11.6804 0.813175C12.825 1.35491 13.8328 2.14662 14.6292 3.12969C16.3994 5.40807 16.2069 7.20006 15.4373 8.11526C15.1855 8.44385 14.826 8.67381 14.4217 8.76503C14.0173 8.85626 13.5937 8.80297 13.2247 8.61445C12.1664 8.05766 11.3006 8.37765 10.9415 8.98565C10.5823 9.59365 10.8388 10.6304 12.2242 11.392C12.5602 11.6015 12.8177 11.9156 12.9568 12.2859C13.096 12.6561 13.1089 13.0617 12.9938 13.44C12.6731 14.72 11.198 16 8.01689 16ZM8.01689 0.640109C6.06078 0.640109 4.18478 1.41553 2.8016 2.79579C1.41841 4.17605 0.641351 6.04808 0.641351 8.00006C0.641351 9.95204 1.41841 11.8241 2.8016 13.2043C4.18478 14.5846 6.06078 15.36 8.01689 15.36C10.8324 15.36 12.1151 14.2976 12.3781 13.3056C12.4612 13.0564 12.457 12.7863 12.3661 12.5398C12.2752 12.2933 12.103 12.0849 11.8778 11.9488C10.1526 10.976 9.88964 9.57444 10.3771 8.67845C10.8645 7.78246 12.0959 7.29606 13.5197 8.03846C13.7616 8.15411 14.0364 8.18159 14.2965 8.11612C14.5566 8.05065 14.7855 7.89637 14.9435 7.68006C15.5271 7.04006 15.6618 5.49767 14.0905 3.52009C13.3527 2.62381 12.4259 1.901 11.376 1.40319C10.3262 0.905373 9.17922 0.644822 8.01689 0.640109ZM7.37554 14.08C7.05763 14.0838 6.74576 13.9932 6.47957 13.8198C6.21338 13.6463 6.00488 13.3977 5.88057 13.1057C5.75625 12.8137 5.72174 12.4914 5.78142 12.1798C5.8411 11.8682 5.99227 11.5813 6.21572 11.3556C6.43917 11.1299 6.72481 10.9756 7.03635 10.9123C7.34789 10.849 7.67126 10.8796 7.96536 11.0001C8.25946 11.1206 8.51102 11.3256 8.68807 11.5892C8.86511 11.8527 8.95966 12.1628 8.95968 12.48C8.95968 12.9044 8.79075 13.3113 8.49006 13.6114C8.18937 13.9114 7.78154 14.08 7.3563 14.08H7.37554ZM7.37554 11.52C7.1845 11.5162 6.99664 11.5693 6.83593 11.6724C6.67521 11.7755 6.54892 11.9241 6.47314 12.0992C6.39737 12.2742 6.37555 12.4678 6.41047 12.6553C6.44539 12.8427 6.53546 13.0156 6.66921 13.1518C6.80295 13.2879 6.97431 13.3813 7.16143 13.4199C7.34855 13.4585 7.54296 13.4407 7.71987 13.3686C7.89678 13.2966 8.04818 13.1736 8.15476 13.0153C8.26135 12.8571 8.31829 12.6707 8.31833 12.48C8.31833 12.2254 8.21697 11.9812 8.03656 11.8012C7.85614 11.6212 7.61145 11.52 7.3563 11.52H7.37554ZM4.16878 10.88C3.85087 10.8838 3.53901 10.7933 3.27281 10.6198C3.00662 10.4463 2.79812 10.1978 2.67381 9.90576C2.5495 9.61375 2.51499 9.29146 2.57466 8.97984C2.63434 8.66822 2.78551 8.38134 3.00896 8.15565C3.23241 7.92996 3.51806 7.77566 3.8296 7.71235C4.14113 7.64904 4.4645 7.67959 4.7586 7.8001C5.0527 7.92062 5.30426 8.12566 5.48131 8.38918C5.65836 8.65269 5.7529 8.96279 5.75292 9.28005C5.75292 9.70439 5.58399 10.1114 5.2833 10.4114C4.98261 10.7115 4.57479 10.88 4.14954 10.88H4.16878ZM4.16878 8.32005C3.97774 8.31624 3.78989 8.36928 3.62917 8.47243C3.46845 8.57557 3.34216 8.72413 3.26639 8.89917C3.19061 9.07422 3.1688 9.26782 3.20372 9.45529C3.23863 9.64275 3.32871 9.8156 3.46245 9.95178C3.59619 10.088 3.76755 10.1813 3.95467 10.2199C4.14179 10.2586 4.3362 10.2407 4.51311 10.1687C4.69002 10.0966 4.84142 9.97359 4.94801 9.81533C5.05459 9.65707 5.11153 9.47073 5.11157 9.28005C5.11157 9.02544 5.01021 8.78126 4.8298 8.60123C4.64938 8.4212 4.40469 8.32005 4.14954 8.32005H4.16878ZM5.45149 6.40007C5.13358 6.40387 4.82171 6.31328 4.55552 6.1398C4.28932 5.96633 4.08082 5.71779 3.95651 5.42579C3.8322 5.13378 3.79769 4.81149 3.85737 4.49987C3.91704 4.18825 4.06821 3.90137 4.29166 3.67568C4.51511 3.44999 4.80076 3.29569 5.1123 3.23238C5.42384 3.16908 5.7472 3.19962 6.04131 3.32013C6.33541 3.44065 6.58697 3.64569 6.76401 3.90921C6.94106 4.17273 7.0356 4.48282 7.03562 4.80008C7.03562 5.22442 6.8667 5.63139 6.56601 5.93144C6.26531 6.2315 5.85749 6.40007 5.43225 6.40007H5.45149ZM5.45149 3.84009C5.26044 3.83627 5.07259 3.88932 4.91187 3.99246C4.75116 4.0956 4.62486 4.24416 4.54909 4.41921C4.47332 4.59425 4.4515 4.78785 4.48642 4.97532C4.52134 5.16278 4.61141 5.33563 4.74515 5.47181C4.8789 5.608 5.05025 5.70135 5.23737 5.73998C5.4245 5.7786 5.6189 5.76075 5.79582 5.68869C5.97273 5.61662 6.12413 5.49362 6.23071 5.33536C6.33729 5.1771 6.39423 4.99076 6.39427 4.80008C6.39427 4.54547 6.29292 4.30129 6.1125 4.12126C5.93209 3.94123 5.68739 3.84009 5.43225 3.84009H5.45149ZM9.94095 5.76007C9.62304 5.76388 9.31117 5.67329 9.04498 5.49981C8.77878 5.32633 8.57028 5.0778 8.44597 4.78579C8.32166 4.49379 8.28715 4.1715 8.34683 3.85988C8.4065 3.54826 8.55767 3.26137 8.78112 3.03569C9.00457 2.81 9.29022 2.6557 9.60176 2.59239C9.9133 2.52908 10.2367 2.55962 10.5308 2.68014C10.8249 2.80065 11.0764 3.0057 11.2535 3.26921C11.4305 3.53273 11.5251 3.84282 11.5251 4.16008C11.5251 4.58443 11.3562 4.99139 11.0555 5.29145C10.7548 5.5915 10.3469 5.76007 9.92171 5.76007H9.94095ZM9.94095 3.20009C9.7499 3.19628 9.56205 3.24932 9.40133 3.35246C9.24062 3.4556 9.11432 3.60417 9.03855 3.77921C8.96278 3.95426 8.94096 4.14785 8.97588 4.33532C9.0108 4.52279 9.10087 4.69563 9.23461 4.83182C9.36836 4.968 9.53971 5.06136 9.72683 5.09998C9.91395 5.13861 10.1084 5.12075 10.2853 5.04869C10.4622 4.97663 10.6136 4.85363 10.7202 4.69537C10.8268 4.53711 10.8837 4.35076 10.8837 4.16008C10.8837 3.90548 10.7824 3.6613 10.602 3.48127C10.4215 3.30123 10.1769 3.20009 9.92171 3.20009H9.94095Z" fill="black" fill-opacity="0.85"/>
</svg>
