<svg width="13" height="13" viewBox="0 0 13 13" fill="none" xmlns="http://www.w3.org/2000/svg">
<g clip-path="url(#clip0_216_1010)">
<path d="M5.37025 7.62988L0.270996 12.7291" stroke="black" stroke-linecap="round" stroke-linejoin="round"/>
<path d="M11.599 4.6508C11.6346 4.68637 11.6768 4.71459 11.7233 4.73384C11.7698 4.75309 11.8196 4.763 11.8699 4.763C11.9202 4.763 11.97 4.75309 12.0165 4.73384C12.0629 4.71459 12.1051 4.68637 12.1407 4.6508L12.5702 4.22126C12.6718 4.11968 12.7288 3.98193 12.7288 3.8383C12.7288 3.69467 12.6718 3.55692 12.5702 3.45534L9.5445 0.429589C9.44292 0.328042 9.30517 0.270996 9.16154 0.270996C9.01791 0.270996 8.88016 0.328042 8.77858 0.429589L8.34904 0.85913C8.31347 0.894693 8.28525 0.936915 8.26599 0.983385C8.24674 1.02986 8.23683 1.07966 8.23683 1.12996C8.23683 1.18026 8.24674 1.23007 8.26599 1.27654C8.28525 1.32301 8.31347 1.36523 8.34904 1.4008C8.38461 1.43636 8.41283 1.47858 8.43208 1.52505C8.45134 1.57152 8.46125 1.62133 8.46125 1.67163C8.46125 1.72193 8.45134 1.77174 8.43208 1.81821C8.41283 1.86468 8.38461 1.9069 8.34904 1.94246L6.07025 4.22126C5.96869 4.32284 5.83094 4.37993 5.68729 4.37996H3.96912C3.82548 4.37999 3.68772 4.43708 3.58616 4.53867L3.31533 4.80951C3.21378 4.91108 3.15674 5.04883 3.15674 5.19246C3.15674 5.33609 3.21378 5.47384 3.31533 5.57542L7.42441 9.68451C7.52599 9.78605 7.66374 9.8431 7.80737 9.8431C7.951 9.8431 8.08875 9.78605 8.19033 9.68451L8.46116 9.41367C8.56275 9.31211 8.61984 9.17436 8.61987 9.03071V7.31255C8.6199 7.1689 8.67699 7.03115 8.77858 6.92959L11.0574 4.6508C11.0929 4.61522 11.1352 4.58701 11.1816 4.56775C11.2281 4.5485 11.2779 4.53859 11.3282 4.53859C11.3785 4.53859 11.4283 4.5485 11.4748 4.56775C11.5213 4.58701 11.5635 4.61522 11.599 4.6508V4.6508Z" stroke="black" stroke-linecap="round" stroke-linejoin="round"/>
</g>
<defs>
<clipPath id="clip0_216_1010">
<rect width="13" height="13" fill="white"/>
</clipPath>
</defs>
</svg>
