<svg width="58" height="58" viewBox="0 0 58 58" fill="none" xmlns="http://www.w3.org/2000/svg">
<g clip-path="url(#clip0_214_515)">
<path fill-rule="evenodd" clip-rule="evenodd" d="M29 0C12.992 0 0 12.992 0 29C0 45.008 12.992 58 29 58C45.008 58 58 45.008 58 29C58 12.992 45.008 0 29 0ZM29 52.2C16.211 52.2 5.8 41.789 5.8 29C5.8 16.211 16.211 5.8 29 5.8C41.789 5.8 52.2 16.211 52.2 29C52.2 41.789 41.789 52.2 29 52.2ZM23.2 42.05L40.6 29L23.2 15.95V42.05Z" fill="#121C40"/>
</g>
<defs>
<clipPath id="clip0_214_515">
<rect width="58" height="58" fill="white"/>
</clipPath>
</defs>
</svg>
