<svg width="23" height="23" viewBox="0 0 23 23" fill="none" xmlns="http://www.w3.org/2000/svg">
<path d="M18.4508 5.46761C19.2952 6.38898 19.2376 7.81918 18.3218 8.66952L8.83523 17.4801L3.80365 11.992C3.38068 11.5311 3.18455 10.9419 3.2097 10.3623C3.23483 9.78307 3.48124 9.21347 3.94256 8.79051C4.86479 7.94459 6.29855 8.0068 7.14404 8.92942L9.04716 11.0048L15.2386 5.32823C16.1643 4.47956 17.6022 4.54195 18.4508 5.46761Z" fill="#4D3DFF"/>
<path d="M8.8209 17.8102C8.73329 17.8064 8.65083 17.768 8.59156 17.7034L3.55997 12.2153C3.09107 11.7044 2.84931 11.041 2.87939 10.3478C2.90944 9.65534 3.20769 9.01566 3.71915 8.54673C4.23019 8.07796 4.89335 7.83632 5.5864 7.86639C6.27942 7.89646 6.91915 8.19463 7.38775 8.70595L9.06738 10.5376L15.0152 5.08445C15.528 4.6143 16.1931 4.372 16.8879 4.40215C17.5828 4.4323 18.2244 4.73129 18.6945 5.24409C19.6584 6.29585 19.5921 7.94111 18.5468 8.91161L9.06022 17.7221C8.99571 17.7821 8.90996 17.8137 8.82201 17.8102C8.8216 17.8102 8.82127 17.8102 8.8209 17.8102ZM5.55774 8.52695C5.04121 8.50454 4.54695 8.68465 4.166 9.03407C3.78462 9.38373 3.56231 9.86045 3.53991 10.3765C3.51749 10.8932 3.69764 11.3875 4.04719 11.7684L8.85407 17.0113L18.0969 8.42724C18.8768 7.70311 18.9262 6.47556 18.2071 5.6909C17.8564 5.30836 17.3777 5.08529 16.8593 5.0628C16.3408 5.0403 15.8446 5.22111 15.462 5.57187L9.27051 11.2484C9.13595 11.3717 8.92685 11.3627 8.80348 11.2281L6.90036 9.1528C6.55107 8.7716 6.07423 8.54936 5.55774 8.52695Z" fill="black"/>
</svg>
