<svg width="26" height="28" viewBox="0 0 26 28" fill="none" xmlns="http://www.w3.org/2000/svg">
<path d="M18.898 8.70764H11.7576C11.6378 8.70764 11.5229 8.7589 11.4382 8.85013C11.3535 8.94136 11.3059 9.0651 11.3059 9.19412C11.3059 9.32314 11.3535 9.44688 11.4382 9.53811C11.5229 9.62934 11.6378 9.6806 11.7576 9.6806H18.898C19.0178 9.6806 19.1327 9.62934 19.2174 9.53811C19.3022 9.44688 19.3497 9.32314 19.3497 9.19412C19.3497 9.0651 19.3022 8.94136 19.2174 8.85013C19.1327 8.7589 19.0178 8.70764 18.898 8.70764Z" fill="white"/>
<path d="M11.7576 12.8655H15.5652C15.685 12.8655 15.7999 12.8143 15.8847 12.723C15.9694 12.6318 16.017 12.5081 16.017 12.3791C16.017 12.25 15.9694 12.1263 15.8847 12.0351C15.7999 11.9438 15.685 11.8926 15.5652 11.8926H11.7576C11.6378 11.8926 11.5229 11.9438 11.4382 12.0351C11.3535 12.1263 11.3059 12.25 11.3059 12.3791C11.3059 12.5081 11.3535 12.6318 11.4382 12.723C11.5229 12.8143 11.6378 12.8655 11.7576 12.8655Z" fill="white"/>
<path d="M9.03247 9.65158L7.75606 11.0262L7.31986 10.5565C7.28346 10.5173 7.24025 10.4862 7.1927 10.465C7.14514 10.4438 7.09417 10.4328 7.0427 10.4328C6.93874 10.4328 6.83904 10.4773 6.76553 10.5565C6.69202 10.6356 6.65072 10.743 6.65072 10.855C6.65072 10.9669 6.69201 11.0743 6.76552 11.1535L7.47892 11.9216C7.51531 11.9608 7.55852 11.9919 7.60607 12.0131C7.65362 12.0343 7.70459 12.0453 7.75606 12.0453C7.80753 12.0453 7.8585 12.0343 7.90605 12.0131C7.9536 11.9919 7.99681 11.9608 8.0332 11.9216L9.58679 10.2485C9.62318 10.2093 9.65206 10.1628 9.67175 10.1116C9.69145 10.0604 9.70159 10.0055 9.70158 9.95005C9.70158 9.89462 9.69144 9.83973 9.67174 9.78852C9.65205 9.73731 9.62317 9.69078 9.58678 9.65158C9.55038 9.61238 9.50717 9.58129 9.45961 9.56008C9.41206 9.53887 9.36109 9.52795 9.30962 9.52795C9.25814 9.52796 9.20717 9.53887 9.15962 9.56009C9.11207 9.5813 9.06886 9.6124 9.03246 9.65159L9.03247 9.65158Z" fill="white"/>
<path d="M18.898 17.5862H11.7576C11.6378 17.5862 11.5229 17.6374 11.4382 17.7287C11.3535 17.8199 11.3059 17.9436 11.3059 18.0727C11.3059 18.2017 11.3535 18.3254 11.4382 18.4167C11.5229 18.5079 11.6378 18.5592 11.7576 18.5592H18.898C19.0178 18.5592 19.1327 18.5079 19.2174 18.4167C19.3022 18.3254 19.3498 18.2017 19.3498 18.0727C19.3498 17.9436 19.3022 17.8199 19.2174 17.7287C19.1327 17.6374 19.0178 17.5862 18.898 17.5862Z" fill="white"/>
<path d="M15.5652 20.771H11.7576C11.6378 20.771 11.5229 20.8223 11.4382 20.9135C11.3535 21.0047 11.3059 21.1285 11.3059 21.2575C11.3059 21.3865 11.3535 21.5102 11.4382 21.6015C11.5229 21.6927 11.6378 21.744 11.7576 21.744H15.5652C15.685 21.744 15.7999 21.6927 15.8847 21.6015C15.9694 21.5102 16.017 21.3865 16.017 21.2575C16.017 21.1285 15.9694 21.0047 15.8847 20.9135C15.7999 20.8223 15.685 20.771 15.5652 20.771H15.5652Z" fill="white"/>
<path d="M9.03247 18.53L7.75606 19.9046L7.31986 19.4349C7.24635 19.3557 7.14665 19.3113 7.04269 19.3113C6.93873 19.3113 6.83903 19.3557 6.76552 19.4349C6.69201 19.5141 6.65071 19.6214 6.65071 19.7334C6.65071 19.8453 6.69201 19.9527 6.76552 20.0319L7.47891 20.8001C7.55242 20.8792 7.65211 20.9237 7.75606 20.9237C7.86 20.9237 7.95969 20.8792 8.0332 20.8001L9.58679 19.1269C9.62318 19.0877 9.65205 19.0412 9.67175 18.99C9.69144 18.9388 9.70158 18.8839 9.70158 18.8285C9.70158 18.773 9.69144 18.7181 9.67174 18.6669C9.65204 18.6157 9.62316 18.5692 9.58677 18.53C9.55037 18.4908 9.50716 18.4597 9.4596 18.4385C9.41205 18.4173 9.36108 18.4064 9.30961 18.4064C9.25814 18.4064 9.20717 18.4173 9.15961 18.4385C9.11206 18.4597 9.06885 18.4908 9.03246 18.53H9.03247Z" fill="white"/>
<path d="M21.9888 2.80074H18.6745L18.3376 0.91961C18.3031 0.757563 18.2135 0.612204 18.0838 0.507896C17.9542 0.403587 17.7923 0.346669 17.6253 0.34668H10.1113C9.94407 0.347073 9.78202 0.404075 9.65192 0.508257C9.52181 0.612438 9.43145 0.757557 9.39578 0.91961L9.05891 2.80075H5.74464C4.98167 2.80172 4.25022 3.10283 3.71072 3.63806C3.17121 4.17328 2.86768 4.89893 2.8667 5.65585V24.7982C2.86823 25.555 3.17193 26.2803 3.71132 26.8154C4.25071 27.3505 4.98184 27.6518 5.74464 27.6533H21.9888C22.7517 27.6523 23.4832 27.3512 24.0227 26.816C24.5622 26.2808 24.8657 25.5551 24.8667 24.7982V5.65585C24.8663 4.89876 24.5629 4.1728 24.0233 3.63746C23.4837 3.10211 22.7519 2.80117 21.9888 2.80074ZM13.8523 0.916416C13.9836 0.916416 14.112 0.955059 14.2212 1.02746C14.3305 1.09985 14.4156 1.20276 14.4658 1.32315C14.5161 1.44354 14.5293 1.57602 14.5036 1.70383C14.478 1.83164 14.4148 1.94904 14.3219 2.04119C14.229 2.13333 14.1107 2.19608 13.9818 2.22151C13.853 2.24693 13.7195 2.23388 13.5981 2.18401C13.4767 2.13414 13.373 2.04969 13.3 1.94134C13.2271 1.83299 13.1881 1.7056 13.1881 1.57529C13.188 1.48874 13.2051 1.40302 13.2385 1.32304C13.2718 1.24306 13.3207 1.17039 13.3824 1.10919C13.4441 1.04799 13.5174 0.999457 13.598 0.966378C13.6786 0.9333 13.765 0.916322 13.8523 0.916416ZM23.0475 24.7982C23.0473 25.0767 22.9356 25.3437 22.7371 25.5406C22.5386 25.7375 22.2695 25.8483 21.9888 25.8486H5.74464C5.46392 25.8483 5.19478 25.7375 4.99628 25.5406C4.79778 25.3437 4.68613 25.0767 4.68585 24.7982V5.65585C4.68601 5.37703 4.79751 5.10962 4.99595 4.91216C5.19438 4.71471 5.46359 4.60329 5.74464 4.60229H8.73485L8.73166 4.60548H19.0017V4.60229H21.9888C22.2698 4.60329 22.539 4.71471 22.7374 4.91216C22.9359 5.10962 23.0474 5.37703 23.0475 5.65585L23.0475 24.7982Z" fill="white"/>
</svg>
