<svg width="27" height="27" viewBox="0 0 27 27" fill="none" xmlns="http://www.w3.org/2000/svg">
<path d="M3.72559 4.61622L13.3702 6.50219L23.0147 8.38816C23.1003 8.40482 23.1889 8.38685 23.2612 8.33821C23.3335 8.28957 23.3835 8.21422 23.4003 8.12872C23.4543 7.8527 23.4534 7.56874 23.3977 7.29306C23.3419 7.01739 23.2324 6.7554 23.0754 6.52205C22.9184 6.2887 22.7169 6.08857 22.4826 5.93308C22.2482 5.7776 21.9855 5.66981 21.7095 5.61586L18.5091 4.99005L18.6772 4.13079C18.7956 3.52159 18.6675 2.8903 18.321 2.37542C17.9746 1.86053 17.438 1.50409 16.8291 1.38431L12.0939 0.458344C11.4847 0.339935 10.8534 0.468005 10.3385 0.81446C9.82361 1.16091 9.46718 1.69746 9.34738 2.30638L9.17936 3.16564L5.97901 2.53982C5.70299 2.4858 5.41903 2.4867 5.14336 2.54244C4.86768 2.59819 4.60568 2.7077 4.37233 2.86471C4.13898 3.02173 3.93885 3.22317 3.78337 3.45755C3.62788 3.69192 3.52009 3.95462 3.46615 4.23066C3.44949 4.31619 3.46746 4.40483 3.5161 4.47712C3.56474 4.54941 3.64009 4.59944 3.72559 4.61623V4.61622ZM12.6704 2.07208L15.6872 2.66199C16.1409 2.75072 16.5408 3.01606 16.7989 3.39963C17.057 3.78321 17.1522 4.25361 17.0634 4.70734L13.8442 4.07784L10.6251 3.44834C10.669 3.22368 10.7568 3.00987 10.8833 2.81911C11.0099 2.62836 11.1728 2.46441 11.3627 2.33661C11.5526 2.20881 11.7659 2.11967 11.9903 2.07428C12.2146 2.0289 12.4458 2.02815 12.6704 2.07208Z" fill="#478FD0"/>
<path d="M23.3272 9.99023H3.67273C3.58559 9.9903 3.50205 10.0249 3.44043 10.0866C3.37882 10.1482 3.34418 10.2317 3.34412 10.3188V11.5653C3.34412 11.7466 6.74923 24.4435 6.74923 24.4435C6.79832 25.0274 7.0649 25.5715 7.49616 25.9682C7.92742 26.3648 8.49192 26.585 9.07785 26.5852H17.9221C18.508 26.585 19.0725 26.3648 19.5038 25.9682C19.935 25.5715 20.2016 25.0274 20.2507 24.4435C20.2507 24.4435 23.6558 11.7466 23.6558 11.5653V10.3188C23.6557 10.2317 23.6211 10.1482 23.5595 10.0866C23.4979 10.0249 23.4143 9.9903 23.3272 9.99023ZM10.263 23.5365C10.1931 23.5553 10.1202 23.5601 10.0485 23.5506C9.97677 23.5412 9.90761 23.5177 9.84498 23.4815C9.78234 23.4453 9.72746 23.397 9.68349 23.3396C9.63951 23.2821 9.6073 23.2166 9.5887 23.1467C8.65164 19.6423 7.69874 16.0738 7.07531 13.7115C7.03804 13.5703 7.05839 13.4201 7.13189 13.2938C7.20539 13.1676 7.32602 13.0758 7.46724 13.0385C7.60846 13.0013 7.7587 13.0216 7.88491 13.0951C8.01112 13.1686 8.10296 13.2892 8.14023 13.4305C8.76335 15.7912 9.71609 19.3587 10.6527 22.8622C10.6714 22.9321 10.6762 23.0049 10.6667 23.0766C10.6572 23.1483 10.6337 23.2175 10.5975 23.2801C10.5613 23.3427 10.5132 23.3976 10.4558 23.4416C10.3984 23.4856 10.3329 23.5178 10.263 23.5365L10.263 23.5365ZM14.05 23.0044C14.0497 23.1503 13.9916 23.2901 13.8883 23.3932C13.785 23.4962 13.6451 23.5541 13.4992 23.5541C13.3534 23.5541 13.2134 23.4962 13.1102 23.3932C13.0069 23.2901 12.9488 23.1503 12.9485 23.0044V13.571C12.9488 13.4251 13.0069 13.2853 13.1102 13.1822C13.2134 13.0792 13.3534 13.0213 13.4992 13.0213C13.6451 13.0213 13.785 13.0792 13.8883 13.1822C13.9916 13.2853 14.0497 13.4251 14.05 13.571V23.0044ZM19.9246 13.7115C19.273 16.1807 18.2391 20.0509 17.4112 23.1467C17.3925 23.2166 17.3603 23.2822 17.3163 23.3396C17.2723 23.397 17.2174 23.4453 17.1548 23.4815C17.0922 23.5177 17.023 23.5412 16.9513 23.5507C16.8796 23.5602 16.8067 23.5554 16.7368 23.5368C16.6669 23.5181 16.6014 23.4858 16.544 23.4418C16.4866 23.3977 16.4384 23.3428 16.4022 23.2802C16.366 23.2175 16.3425 23.1484 16.3331 23.0766C16.3237 23.0049 16.3284 22.932 16.3472 22.8621C17.1748 19.7671 18.2084 15.8981 18.8596 13.4305C18.8781 13.3605 18.9101 13.2949 18.954 13.2374C18.9978 13.1799 19.0525 13.1315 19.115 13.0951C19.1775 13.0587 19.2465 13.035 19.3182 13.0253C19.3898 13.0156 19.4627 13.0201 19.5326 13.0385C19.6026 13.057 19.6682 13.089 19.7257 13.1328C19.7832 13.1766 19.8316 13.2314 19.868 13.2939C19.9044 13.3563 19.9281 13.4254 19.9378 13.4971C19.9475 13.5687 19.943 13.6416 19.9246 13.7115L19.9246 13.7115Z" fill="#8C9EB0"/>
</svg>
