<svg width="15" height="14" viewBox="0 0 15 14" fill="none" xmlns="http://www.w3.org/2000/svg">
<path d="M14.998 13.3414C14.9843 13.5074 14.9047 13.6664 14.7733 13.7886C14.6295 13.9232 14.4352 14 14.2411 14C14.0645 14 13.9013 13.938 13.7805 13.8257L7.5 7.96337L1.21905 13.8257C1.09871 13.9381 0.935459 14 0.759378 14C0.564716 14 0.370496 13.9232 0.226712 13.7886C0.0953148 13.6664 0.0156801 13.5074 0.00196529 13.3414C-0.0126344 13.1601 0.0546126 12.9855 0.186894 12.8624L6.46785 7L0.186894 1.13762C-0.0758996 0.892756 -0.0577605 0.476935 0.226712 0.21142C0.370496 0.0768049 0.564716 0 0.759378 0C0.935459 0 1.09871 0.0619393 1.21949 0.174256L7.5 6.03663L13.781 0.174256C13.9013 0.0619393 14.0645 0 14.2411 0C14.4353 0 14.6295 0.0768049 14.7733 0.21142C15.0582 0.476935 15.0759 0.892343 14.8131 1.13762L8.53215 7L14.8131 12.8624C14.9454 12.9854 15.0126 13.1601 14.998 13.3414Z" fill="white"/>
</svg>
